<svg xmlns="http://www.w3.org/2000/svg" width="1024" height="1024" viewBox="0 0 1024 1024" version="1.1">
	<path d="M 0 512.001 L 0 1024.002 512.250 1023.751 L 1024.500 1023.500 1024.751 511.750 L 1025.002 0 512.501 0 L 0 0 0 512.001 M 0.496 512.500 C 0.496 794.100, 0.610 909.151, 0.750 768.168 C 0.890 627.186, 0.890 396.786, 0.750 256.168 C 0.610 115.551, 0.496 230.900, 0.496 512.500 M 491 128.600 C 435.139 132.482, 389.369 144.473, 342.500 167.506 C 232.035 221.791, 153.246 327.505, 133.547 447.867 C 129.478 472.729, 128.613 483.979, 128.613 512 C 128.613 540.021, 129.478 551.271, 133.547 576.133 C 159.694 735.895, 288.105 864.306, 447.867 890.453 C 472.729 894.522, 483.979 895.387, 512 895.387 C 540.021 895.387, 551.271 894.522, 576.133 890.453 C 735.913 864.303, 864.303 735.913, 890.453 576.133 C 894.522 551.271, 895.387 540.021, 895.387 512 C 895.387 483.979, 894.522 472.729, 890.453 447.867 C 865.983 298.354, 751.838 175.426, 603.706 139.057 C 590.412 135.793, 566.032 131.606, 551 130.005 C 540.823 128.922, 500.096 127.968, 491 128.600 M 395.973 406.006 C 374.217 409.415, 353.691 424.467, 338.198 448.373 C 333.131 456.191, 324.027 474.914, 321.469 482.779 C 315.816 500.151, 330.275 515.823, 347.504 510.999 C 354.376 509.075, 358.871 504.036, 363.346 493.241 C 370.632 475.662, 382.584 458.756, 391.904 452.846 C 401.736 446.611, 409.626 446.783, 419.380 453.446 C 429.427 460.309, 441.498 477.899, 447.907 495.018 C 452.916 508.397, 464.321 514.806, 476.101 510.862 C 483.906 508.249, 489.006 502.032, 490.447 493.375 C 491.316 488.155, 488.084 478.134, 480.889 463.738 C 465.624 433.194, 444.771 413.495, 421.500 407.635 C 413.523 405.626, 402.775 404.940, 395.973 406.006 M 610.500 405.950 C 582.460 410.457, 560.198 429.548, 543.111 463.738 C 533.037 483.893, 531.482 492.059, 536.013 501 C 538.274 505.461, 540.441 507.393, 546.018 509.923 C 557.496 515.129, 571.241 509.042, 575.135 497.027 C 575.764 495.087, 578.301 489.450, 580.773 484.500 C 595.958 454.096, 613.311 442.433, 629.864 451.503 C 640.500 457.331, 652.354 473.509, 661 493.999 C 664.244 501.687, 666.067 504.668, 668.862 506.848 C 680.860 516.213, 696.835 512.163, 702.652 498.282 C 705.643 491.142, 704.186 484.671, 695.408 466.131 C 685.906 446.060, 672.671 428.862, 659.490 419.456 C 652.412 414.405, 640.784 408.816, 634 407.204 C 627.370 405.629, 616.204 405.033, 610.500 405.950 M 303.383 575.949 C 297.410 577.375, 290.996 581.198, 287.045 585.687 C 269.382 605.752, 276.486 657.530, 302.525 698.512 C 327.122 737.225, 366.102 770.288, 409.801 789.505 C 429.334 798.095, 455.252 805.323, 478 808.526 C 495.165 810.943, 528.835 810.943, 546 808.526 C 603.915 800.372, 654.058 774.947, 693.804 733.583 C 723.765 702.403, 741.933 666.686, 746.110 630.755 C 747.558 618.301, 746.343 604.625, 742.996 595.703 C 739.690 586.890, 732.271 579.782, 723.575 577.096 C 719.843 575.943, 715.046 575, 712.914 575 C 710.783 575, 698.118 577.002, 684.770 579.449 C 636.343 588.328, 615.774 591.282, 578.500 594.714 C 551.321 597.216, 472.679 597.216, 445.500 594.714 C 408.226 591.282, 387.657 588.328, 339.230 579.449 C 315.266 575.056, 309.487 574.492, 303.383 575.949 M 320 619.518 C 320 622.040, 328.330 644.779, 332.475 653.572 L 337.694 664.645 345.597 666.332 C 426.196 683.539, 572.882 684.556, 665 668.546 C 687.960 664.556, 685.888 665.749, 691.756 653.143 C 696.523 642.900, 704.546 620.213, 703.700 619.366 C 703.485 619.152, 697.952 620.345, 691.405 622.017 C 664.859 628.800, 615.183 635.589, 573.500 638.130 C 562.500 638.801, 534.825 639.350, 512 639.350 C 489.175 639.350, 461.500 638.801, 450.500 638.130 C 408.848 635.591, 359.140 628.800, 332.643 622.030 C 319.647 618.709, 320 618.779, 320 619.518 M 640 707.668 C 600.436 713.510, 558.742 716.283, 511 716.249 C 462.319 716.213, 424.535 713.824, 386.671 708.386 C 376.865 706.977, 368.642 706.025, 368.398 706.269 C 367.809 706.858, 380.598 718.218, 389.976 725.436 C 451.047 772.438, 559.870 775.244, 625.500 731.508 C 637.208 723.706, 657.257 706.681, 655.911 705.684 C 655.685 705.516, 648.525 706.410, 640 707.668" stroke="none" fill="black" fill-rule="evenodd"/>
</svg>